# xmcd
#
# Track frame offsets:
#	150
#	20925
#	38757
#	53037
#	67432
#	82812
#	99717
#	113690
#	130057
#	149782
#	163842
#	180987
#	197797
#	210310
#	228777
#
# Disc length: 3331 seconds
#
# Revision: 2
# Processed by: cddbd v1.5.1PL2 Copyright (c) Steve Scherf et al.
# Submitted via: audiograbber 1.83.01
#
DISCID=d30d010f
DTITLE=Music Maestro - MM6283
DYEAR=1900
DGENRE=Karaoke
TTITLE0=Byrd, Tracy - Put Your Hands In Mine
TTITLE1=Allan, Gary - Smoke Rings In The Dark
TTITLE2=South Sixty Five - Baby's Got My Number
TTITLE3=Dixie Chicks, The - You Can't Hurry Love
TTITLE4=Walker, Clay - Live, Laugh, Love
TTITLE5=Brooks and Dunn - Missing You
TTITLE6=Strait, George - What Do You Say To That
TTITLE7=Travis, Randy - Man Ain't Made Of Stone, A
TTITLE8=Kershaw, Sammy - When You Love Someone
TTITLE9=Minor, Shane - Ordinary Love
TTITLE10=Herndon, Ty - Steam
TTITLE11=Lace - I Want A Man
TTITLE12=McCready, Mindy - All I Want Is Everything
TTITLE13=Yoakam, Dwight - Thinking About Leaving
TTITLE14=Brooks, Garth - It Don't Matter To The Sun
EXTD=As Listed In KJ Pro
EXTT0=
EXTT1=
EXTT2=
EXTT3=
EXTT4=
EXTT5=
EXTT6=
EXTT7=
EXTT8=
EXTT9=
EXTT10=
EXTT11=
EXTT12=
EXTT13=
EXTT14=
PLAYORDER=
